/* XPM */
static char *_e6beb76846b47689c98d2093525feaep2FaVpnipseu6T9l[] = {
/* columns rows colors chars-per-pixel */
"128 128 6 1 ",
"  c #281D13",
". c #4A2A1D",
"X c #75432E",
"o c #944D2A",
"O c #DB9460",
"+ c #F2AC77",
/* pixels */
"                                                                                                                                ",
"                                                                                                                                ",
"                                                                                                                                ",
"                                                                                                                                ",
"            ++++++++++++++++++++++++++++++++++++++++                        ++++++++++++++++++++++++++++++++++++++++            ",
"            ++++++++++++++++++++++++++++++++++++++++                        ++++++++++++++++++++++++++++++++++++++++            ",
"            ++++++++++++++++++++++++++++++++++++++++                        ++++++++++++++++++++++++++++++++++++++++            ",
"            ++++++++++++++++++++++++++++++++++++++++                        ++++++++++++++++++++++++++++++++++++++++            ",
"        ++++ooooooooooooooooooooooooooooooooooooooooOOOO                ++++ooooooooooooooooooooooooooooooooooooooooOOOO        ",
"        ++++ooooooooooooooooooooooooooooooooooooooooOOOO                ++++ooooooooooooooooooooooooooooooooooooooooOOOO        ",
"        ++++ooooooooooooooooooooooooooooooooooooooooOOOO                ++++ooooooooooooooooooooooooooooooooooooooooOOOO        ",
"        ++++ooooooooooooooooooooooooooooooooooooooooOOOO                ++++ooooooooooooooooooooooooooooooooooooooooOOOO        ",
"    ....ooooooooooooooooooooooooooooooooooooooooooooooooOOOO        ....ooooooooooooooooooooooooooooooooooooooooooooooooOOOO    ",
"    ....ooooooooooooooooooooooooooooooooooooooooooooooooOOOO        ....ooooooooooooooooooooooooooooooooooooooooooooooooOOOO    ",
"    ....ooooooooooooooooooooooooooooooooooooooooooooooooOOOO        ....ooooooooooooooooooooooooooooooooooooooooooooooooOOOO    ",
"    ....ooooooooooooooooooooooooooooooooooooooooooooooooOOOO        ....ooooooooooooooooooooooooooooooooooooooooooooooooOOOO    ",
"    ....ooooooooooooooooooooooooooooooooooooooooooooooooOOOO        ....ooooooooooooooooooooooooooooooooooooooooooooooooOOOO    ",
"    ....ooooooooooooooooooooooooooooooooooooooooooooooooOOOO        ....ooooooooooooooooooooooooooooooooooooooooooooooooOOOO    ",
"    ....ooooooooooooooooooooooooooooooooooooooooooooooooOOOO        ....ooooooooooooooooooooooooooooooooooooooooooooooooOOOO    ",
"    ....ooooooooooooooooooooooooooooooooooooooooooooooooOOOO        ....ooooooooooooooooooooooooooooooooooooooooooooooooOOOO    ",
"    ....ooooooooooooooooooooooooooooooooooooooooooooooooOOOO        ....ooooooooooooooooooooooooooooooooooooooooooooooooOOOO    ",
"    ....ooooooooooooooooooooooooooooooooooooooooooooooooOOOO        ....ooooooooooooooooooooooooooooooooooooooooooooooooOOOO    ",
"    ....ooooooooooooooooooooooooooooooooooooooooooooooooOOOO        ....ooooooooooooooooooooooooooooooooooooooooooooooooOOOO    ",
"    ....ooooooooooooooooooooooooooooooooooooooooooooooooOOOO        ....ooooooooooooooooooooooooooooooooooooooooooooooooOOOO    ",
"    ....ooooooooooooooooooooooooooooooooooooooooooooooooOOOO        ....ooooooooooooooooooooooooooooooooooooooooooooooooOOOO    ",
"    ....ooooooooooooooooooooooooooooooooooooooooooooooooOOOO        ....ooooooooooooooooooooooooooooooooooooooooooooooooOOOO    ",
"    ....ooooooooooooooooooooooooooooooooooooooooooooooooOOOO        ....ooooooooooooooooooooooooooooooooooooooooooooooooOOOO    ",
"    ....ooooooooooooooooooooooooooooooooooooooooooooooooOOOO        ....ooooooooooooooooooooooooooooooooooooooooooooooooOOOO    ",
"    ....ooooooooooooooooooooooooooooooooooooooooooooooooOOOO        ....ooooooooooooooooooooooooooooooooooooooooooooooooOOOO    ",
"    ....ooooooooooooooooooooooooooooooooooooooooooooooooOOOO        ....ooooooooooooooooooooooooooooooooooooooooooooooooOOOO    ",
"    ....ooooooooooooooooooooooooooooooooooooooooooooooooOOOO        ....ooooooooooooooooooooooooooooooooooooooooooooooooOOOO    ",
"    ....ooooooooooooooooooooooooooooooooooooooooooooooooOOOO        ....ooooooooooooooooooooooooooooooooooooooooooooooooOOOO    ",
"    ....ooooooooooooooooooooooooooooooooooooooooooooooooOOOO        ....ooooooooooooooooooooooooooooooooooooooooooooooooOOOO    ",
"    ....ooooooooooooooooooooooooooooooooooooooooooooooooOOOO        ....ooooooooooooooooooooooooooooooooooooooooooooooooOOOO    ",
"    ....ooooooooooooooooooooooooooooooooooooooooooooooooOOOO        ....ooooooooooooooooooooooooooooooooooooooooooooooooOOOO    ",
"    ....ooooooooooooooooooooooooooooooooooooooooooooooooOOOO        ....ooooooooooooooooooooooooooooooooooooooooooooooooOOOO    ",
"    ....ooooooooooooooooooooooooooooooooooooooooooooooooOOOO        ....ooooooooooooooooooooooooooooooooooooooooooooooooOOOO    ",
"    ....ooooooooooooooooooooooooooooooooooooooooooooooooOOOO        ....ooooooooooooooooooooooooooooooooooooooooooooooooOOOO    ",
"    ....ooooooooooooooooooooooooooooooooooooooooooooooooOOOO        ....ooooooooooooooooooooooooooooooooooooooooooooooooOOOO    ",
"    ....ooooooooooooooooooooooooooooooooooooooooooooooooOOOO        ....ooooooooooooooooooooooooooooooooooooooooooooooooOOOO    ",
"        ....oooooooooooooooooooooooooooooooooooooooo....                ....oooooooooooooooooooooooooooooooooooooooo....        ",
"        ....oooooooooooooooooooooooooooooooooooooooo....                ....oooooooooooooooooooooooooooooooooooooooo....        ",
"        ....oooooooooooooooooooooooooooooooooooooooo....                ....oooooooooooooooooooooooooooooooooooooooo....        ",
"        ....oooooooooooooooooooooooooooooooooooooooo....                ....oooooooooooooooooooooooooooooooooooooooo....        ",
"            ........................................                        ........................................            ",
"            ........................................                        ........................................            ",
"            ........................................                        ........................................            ",
"            ........................................                        ........................................            ",
"                                                                                                                                ",
"                                                                                                                                ",
"                                                                                                                                ",
"                                                                                                                                ",
"++++++++++++++++++++                        ++++++++++++++++++++++++++++++++++++++++                        ++++++++++++++++++++",
"++++++++++++++++++++                        ++++++++++++++++++++++++++++++++++++++++                        ++++++++++++++++++++",
"++++++++++++++++++++                        ++++++++++++++++++++++++++++++++++++++++                        ++++++++++++++++++++",
"++++++++++++++++++++                        ++++++++++++++++++++++++++++++++++++++++                        ++++++++++++++++++++",
"ooooooooooooooooooooOOOO                ++++ooooooooooooooooooooooooooooooooooooooooOOOO                ++++oooooooooooooooooooo",
"ooooooooooooooooooooOOOO                ++++ooooooooooooooooooooooooooooooooooooooooOOOO                ++++oooooooooooooooooooo",
"ooooooooooooooooooooOOOO                ++++ooooooooooooooooooooooooooooooooooooooooOOOO                ++++oooooooooooooooooooo",
"ooooooooooooooooooooOOOO                ++++ooooooooooooooooooooooooooooooooooooooooOOOO                ++++oooooooooooooooooooo",
"ooooooooooooooooooooooooOOOO        ....ooooooooooooooooooooooooooooooooooooooooooooooooOOOO        ....oooooooooooooooooooooooo",
"ooooooooooooooooooooooooOOOO        ....ooooooooooooooooooooooooooooooooooooooooooooooooOOOO        ....oooooooooooooooooooooooo",
"ooooooooooooooooooooooooOOOO        ....ooooooooooooooooooooooooooooooooooooooooooooooooOOOO        ....oooooooooooooooooooooooo",
"ooooooooooooooooooooooooOOOO        ....ooooooooooooooooooooooooooooooooooooooooooooooooOOOO        ....oooooooooooooooooooooooo",
"ooooooooooooooooooooooooOOOO        ....ooooooooooooooooooooooooooooooooooooooooooooooooOOOO        ....oooooooooooooooooooooooo",
"ooooooooooooooooooooooooOOOO        ....ooooooooooooooooooooooooooooooooooooooooooooooooOOOO        ....oooooooooooooooooooooooo",
"ooooooooooooooooooooooooOOOO        ....ooooooooooooooooooooooooooooooooooooooooooooooooOOOO        ....oooooooooooooooooooooooo",
"ooooooooooooooooooooooooOOOO        ....ooooooooooooooooooooooooooooooooooooooooooooooooOOOO        ....oooooooooooooooooooooooo",
"ooooooooooooooooooooooooOOOO        ....ooooooooooooooooooooooooooooooooooooooooooooooooOOOO        ....oooooooooooooooooooooooo",
"ooooooooooooooooooooooooOOOO        ....ooooooooooooooooooooooooooooooooooooooooooooooooOOOO        ....oooooooooooooooooooooooo",
"ooooooooooooooooooooooooOOOO        ....ooooooooooooooooooooooooooooooooooooooooooooooooOOOO        ....oooooooooooooooooooooooo",
"ooooooooooooooooooooooooOOOO        ....ooooooooooooooooooooooooooooooooooooooooooooooooOOOO        ....oooooooooooooooooooooooo",
"ooooooooooooooooooooooooOOOO        ....ooooooooooooooooooooooooooooooooooooooooooooooooOOOO        ....oooooooooooooooooooooooo",
"ooooooooooooooooooooooooOOOO        ....ooooooooooooooooooooooooooooooooooooooooooooooooOOOO        ....oooooooooooooooooooooooo",
"ooooooooooooooooooooooooOOOO        ....ooooooooooooooooooooooooooooooooooooooooooooooooOOOO        ....oooooooooooooooooooooooo",
"ooooooooooooooooooooooooOOOO        ....ooooooooooooooooooooooooooooooooooooooooooooooooOOOO        ....oooooooooooooooooooooooo",
"ooooooooooooooooooooooooOOOO        ....ooooooooooooooooooooooooooooooooooooooooooooooooOOOO        ....oooooooooooooooooooooooo",
"ooooooooooooooooooooooooOOOO        ....ooooooooooooooooooooooooooooooooooooooooooooooooOOOO        ....oooooooooooooooooooooooo",
"ooooooooooooooooooooooooOOOO        ....ooooooooooooooooooooooooooooooooooooooooooooooooOOOO        ....oooooooooooooooooooooooo",
"ooooooooooooooooooooooooOOOO        ....ooooooooooooooooooooooooooooooooooooooooooooooooOOOO        ....oooooooooooooooooooooooo",
"ooooooooooooooooooooooooOOOO        ....ooooooooooooooooooooooooooooooooooooooooooooooooOOOO        ....oooooooooooooooooooooooo",
"ooooooooooooooooooooooooOOOO        ....ooooooooooooooooooooooooooooooooooooooooooooooooOOOO        ....oooooooooooooooooooooooo",
"ooooooooooooooooooooooooOOOO        ....ooooooooooooooooooooooooooooooooooooooooooooooooOOOO        ....oooooooooooooooooooooooo",
"ooooooooooooooooooooooooOOOO        ....ooooooooooooooooooooooooooooooooooooooooooooooooOOOO        ....oooooooooooooooooooooooo",
"oooooooooooooooooooo....                ....oooooooooooooooooooooooooooooooooooooooo....                ....oooooooooooooooooooo",
"oooooooooooooooooooo....                ....oooooooooooooooooooooooooooooooooooooooo....                ....oooooooooooooooooooo",
"oooooooooooooooooooo....                ....oooooooooooooooooooooooooooooooooooooooo....                ....oooooooooooooooooooo",
"oooooooooooooooooooo....                ....oooooooooooooooooooooooooooooooooooooooo....                ....oooooooooooooooooooo",
"....................                        ........................................                        ....................",
"....................                        ........................................                        ....................",
"....................                        ........................................                        ....................",
"....................                        ........................................                        ....................",
"                                                                                                                                ",
"                                                                                                                                ",
"                                                                                                                                ",
"                                                                                                                                ",
"            ++++++++++++++++++++++++++++++++++++++++                        ++++++++++++++++++++++++++++++++++++++++            ",
"            ++++++++++++++++++++++++++++++++++++++++                        ++++++++++++++++++++++++++++++++++++++++            ",
"            ++++++++++++++++++++++++++++++++++++++++                        ++++++++++++++++++++++++++++++++++++++++            ",
"            ++++++++++++++++++++++++++++++++++++++++                        ++++++++++++++++++++++++++++++++++++++++            ",
"        ++++ooooooooooooooooooooooooooooooooooooooooOOOO                ++++ooooooooooooooooooooooooooooooooooooooooOOOO        ",
"        ++++ooooooooooooooooooooooooooooooooooooooooOOOO                ++++ooooooooooooooooooooooooooooooooooooooooOOOO        ",
"        ++++ooooooooooooooooooooooooooooooooooooooooOOOO                ++++ooooooooooooooooooooooooooooooooooooooooOOOO        ",
"        ++++ooooooooooooooooooooooooooooooooooooooooOOOO                ++++ooooooooooooooooooooooooooooooooooooooooOOOO        ",
"    ....ooooooooooooooooooooooooooooooooooooooooooooooooOOOO        ....ooooooooooooooooooooooooooooooooooooooooooooooooOOOO    ",
"    ....ooooooooooooooooooooooooooooooooooooooooooooooooOOOO        ....ooooooooooooooooooooooooooooooooooooooooooooooooOOOO    ",
"    ....ooooooooooooooooooooooooooooooooooooooooooooooooOOOO        ....ooooooooooooooooooooooooooooooooooooooooooooooooOOOO    ",
"    ....ooooooooooooooooooooooooooooooooooooooooooooooooOOOO        ....ooooooooooooooooooooooooooooooooooooooooooooooooOOOO    ",
"    ....ooooooooooooooooooooooooooooooooooooooooooooooooOOOO        ....ooooooooooooooooooooooooooooooooooooooooooooooooOOOO    ",
"    ....ooooooooooooooooooooooooooooooooooooooooooooooooOOOO        ....ooooooooooooooooooooooooooooooooooooooooooooooooOOOO    ",
"    ....ooooooooooooooooooooooooooooooooooooooooooooooooOOOO        ....ooooooooooooooooooooooooooooooooooooooooooooooooOOOO    ",
"    ....ooooooooooooooooooooooooooooooooooooooooooooooooOOOO        ....ooooooooooooooooooooooooooooooooooooooooooooooooOOOO    ",
"    ....ooooooooooooooooooooooooooooooooooooooooooooooooOOOO        ....ooooooooooooooooooooooooooooooooooooooooooooooooOOOO    ",
"    ....ooooooooooooooooooooooooooooooooooooooooooooooooOOOO        ....ooooooooooooooooooooooooooooooooooooooooooooooooOOOO    ",
"    ....ooooooooooooooooooooooooooooooooooooooooooooooooOOOO        ....ooooooooooooooooooooooooooooooooooooooooooooooooOOOO    ",
"    ....ooooooooooooooooooooooooooooooooooooooooooooooooOOOO        ....ooooooooooooooooooooooooooooooooooooooooooooooooOOOO    ",
"    ....ooooooooooooooooooooooooooooooooooooooooooooooooOOOO        ....ooooooooooooooooooooooooooooooooooooooooooooooooOOOO    ",
"    ....ooooooooooooooooooooooooooooooooooooooooooooooooOOOO        ....ooooooooooooooooooooooooooooooooooooooooooooooooOOOO    ",
"    ....ooooooooooooooooooooooooooooooooooooooooooooooooOOOO        ....ooooooooooooooooooooooooooooooooooooooooooooooooOOOO    ",
"    ....ooooooooooooooooooooooooooooooooooooooooooooooooOOOO        ....ooooooooooooooooooooooooooooooooooooooooooooooooOOOO    ",
"    ....ooooooooooooooooooooooooooooooooooooooooooooooooXXXX        ....ooooooooooooooooooooooooooooooooooooooooooooooooXXXX    ",
"    ....ooooooooooooooooooooooooooooooooooooooooooooooooXXXX        ....ooooooooooooooooooooooooooooooooooooooooooooooooXXXX    ",
"    ....ooooooooooooooooooooooooooooooooooooooooooooooooXXXX        ....ooooooooooooooooooooooooooooooooooooooooooooooooXXXX    ",
"    ....ooooooooooooooooooooooooooooooooooooooooooooooooXXXX        ....ooooooooooooooooooooooooooooooooooooooooooooooooXXXX    ",
"        ....oooooooooooooooooooooooooooooooooooooooo....                ....oooooooooooooooooooooooooooooooooooooooo....        ",
"        ....oooooooooooooooooooooooooooooooooooooooo....                ....oooooooooooooooooooooooooooooooooooooooo....        ",
"        ....oooooooooooooooooooooooooooooooooooooooo....                ....oooooooooooooooooooooooooooooooooooooooo....        ",
"        ....oooooooooooooooooooooooooooooooooooooooo....                ....oooooooooooooooooooooooooooooooooooooooo....        "
};
