/* XPM */
static char *result[] = {
/* columns rows colors chars-per-pixel */
"21 21 2 1 ",
"  c #6F3198",
". c #99D9EA",
/* pixels */
"                     ",
"                     ",
"     ..              ",
"     . .             ",
"     .  .            ",
"     .   .           ",
"     .    .          ",
"     .     .         ",
"     .      .        ",
"     .       .       ",
"     .        .      ",
"     .         .     ",
"     .      ....     ",
"     .   .  .        ",
"     .  . .  .       ",
"     . .  .  .       ",
"     ..    .  .      ",
"           .  .      ",
"            ..       ",
"                     ",
"                     "
};
