/* XPM */
static char *_8e927f4dde943bda6864c8f60639f48gfXogmPPlBIgGVHU[] = {
/* columns rows colors chars-per-pixel */
"64 64 256 2 ",
"   c #47704C",
".  c black",
"X  c black",
"o  c black",
"O  c #BA0000",
"+  c #BA0000",
"@  c black",
"#  c black",
"$  c yellow",
"%  c #BA0000",
"&  c black",
"*  c #070000",
"=  c #FFE21C",
"-  c #29A14C",
";  c #BB0000",
":  c black",
">  c black",
",  c black",
"<  c black",
"1  c black",
"2  c black",
"3  c #040000",
"4  c black",
"5  c black",
"6  c black",
"7  c #EE0104",
"8  c black",
"9  c black",
"0  c black",
"q  c black",
"w  c None",
"e  c black",
"r  c black",
"t  c black",
"y  c #EE0002",
"u  c #EF0002",
"i  c #F60204",
"p  c yellow",
"a  c #EE0000",
"s  c #EC0001",
"d  c yellow",
"f  c #E60000",
"g  c #EA0000",
"h  c #F60002",
"j  c #F80102",
"k  c #E50000",
"l  c #E40000",
"z  c #EE0102",
"x  c black",
"c  c black",
"v  c #CF0000",
"b  c #2D0000",
"n  c yellow",
"m  c #FE6C79",
"M  c #FF8764",
"N  c #F30002",
"B  c #FFC630",
"V  c yellow",
"C  c #FB0308",
"Z  c yellow",
"A  c #FE6976",
"S  c yellow",
"D  c #F70104",
"F  c #F60002",
"G  c #E3F20B",
"H  c #F81E2E",
"J  c #FB3646",
"K  c #52B33B",
"L  c #F81B2B",
"P  c #E70000",
"I  c #E60000",
"U  c yellow",
"Y  c #E10000",
"T  c yellow",
"R  c #AD0000",
"E  c #BC0000",
"W  c #A40000",
"Q  c yellow",
"!  c #9D0000",
"~  c yellow",
"^  c #FD616F",
"/  c #F10308",
"(  c #FD626F",
")  c #FE5665",
"_  c #FD4959",
"`  c #FD5765",
"'  c #FC3D4C",
"]  c #F93041",
"[  c #FD4A59",
"{  c #F00002",
"}  c #E80000",
"|  c yellow",
" . c #FB0000",
".. c #DF0000",
"X. c white",
"o. c #FF4B5A",
"O. c #FD3D4D",
"+. c #FF5867",
"@. c #FF6674",
"#. c #FB3041",
"$. c #F92335",
"%. c #EE0000",
"&. c #FC0000",
"*. c #FD0000",
"=. c #FFC82E",
"-. c #E30000",
";. c #D7000F",
":. c #F6192B",
">. c #E40000",
",. c #FAD1CD",
"<. c #FBD8D7",
"1. c #F80000",
"2. c #F20000",
"3. c #FBBFBF",
"4. c #E70000",
"5. c #EC0000",
"6. c #FFF10A",
"7. c #F91729",
"8. c #F40000",
"9. c #F05F5F",
"0. c #E90000",
"q. c #E60000",
"w. c #FA0000",
"e. c #F60000",
"r. c #F00000",
"t. c #E10000",
"y. c #F70B1E",
"u. c #F9BFBF",
"i. c #E44950",
"p. c #FFFAF7",
"a. c #F5C0C2",
"s. c #E62A2F",
"d. c #DC1924",
"f. c #EB787D",
"g. c #F80112",
"h. c #E6575A",
"j. c #F8C5C6",
"k. c #ED3434",
"l. c #F8BCBB",
"z. c #FCE3E3",
"x. c #C3E4CB",
"c. c #E86C0F",
"v. c #EA1919",
"b. c #F5A0A0",
"n. c #FFE10E",
"m. c #F50109",
"M. c #E02C3B",
"N. c #F59192",
"B. c #F38080",
"V. c #E73F48",
"C. c #F29798",
"Z. c #FBD6D6",
"A. c #F9C00C",
"S. c #E63F48",
"D. c #F7B1B1",
"F. c #EC2B2B",
"G. c #EB393C",
"H. c #ED8487",
"J. c #FDF3F2",
"K. c #F27676",
"L. c #F16363",
"P. c #EA1D1D",
"I. c #F36F6F",
"U. c #F7B10C",
"Y. c #EC7A0A",
"T. c #F39A0B",
"R. c #DE2509",
"E. c #FBCB0D",
"W. c #F16868",
"Q. c #F37B7B",
"!. c #2A2821",
"~. c #EA2324",
"^. c #DC1E2C",
"/. c #EF4E4E",
"(. c #E96B6E",
"). c #F5AAAA",
"_. c #F7B6B6",
"`. c #FEF6F5",
"'. c #EE4343",
"]. c #FFC134",
"[. c #F60918",
"{. c #F4060F",
"}. c #A9723B",
"|. c #555117",
" X c #FBC80D",
".X c #F7B40C",
"XX c #E86665",
"oX c #E85E08",
"OX c #BCB71B",
"+X c #ED8D8E",
"@X c #CCC714",
"#X c #6B681F",
"$X c #DB151E",
"%X c #FAFA0D",
"&X c #C86F18",
"*X c #FEFCFB",
"=X c #FAD1D0",
"-X c #B7B523",
";X c #FFFF0B",
":X c #E76064",
">X c #DE343C",
",X c #FDEBEB",
"<X c #FACDCD",
"1X c #FDD40D",
"2X c #DD1D15",
"3X c #FEDB0E",
"4X c #EA6909",
"5X c #F9D4D3",
"6X c #BB5217",
"7X c #E54B08",
"8X c #C13C33",
"9X c #CD0411",
"0X c #EC7D7A",
"qX c #E2DB12",
"wX c #C1341F",
"eX c #CFCD1E",
"rX c #C68031",
"tX c #EBEA13",
"yX c #E65D62",
"uX c #565537",
"iX c #A7A61B",
"pX c #E23E46",
"aX c #D5B612",
"sX c #FBD4D4",
"dX c #EF5555",
"fX c #DBA03C",
"gX c #B97F41",
"hX c #673035",
"jX c #834C46",
"kX c #EE3131",
"lX c #CAE7B2",
"zX c #DF2F2C",
"xX c #F3A00B",
"cX c #E23D07",
"vX c #E65508",
"bX c #F0890A",
"nX c #F0E410",
"mX c #F4A20B",
"MX c #E13607",
"NX c #F81628",
"BX c #C7BD16",
"VX c #C59918",
"CX c #D37E18",
"ZX c #DB2630",
"AX c #A06B3D",
"SX c #EFEF12",
"DX c #BD6557",
"FX c #BF7F1A",
"GX c #E45156",
"HX c #F2F113",
"JX c #BD4E44",
"KX c #C02515",
"LX c #CCAD13",
"PX c #CC8014",
"IX c #AF4534",
"UX c black",
/* pixels */
"                                                                                                                                ",
"                                                                                                                                ",
"                                                                                                                                ",
"                                                                                                                                ",
"                                                                                                                                ",
"                                                                                                                                ",
"                                                                                                                                ",
"                                                                                                                                ",
"                                                                                                                                ",
"                                                                                                                                ",
"              = V d G K - - - - - - - K G d V =                                                                                 ",
"              n | | | x.x.x.x.x.x.x.x.lX| | | U                                                                                 ",
"              ~ | | | c.c.c.c.c.c.c.c.Y.| | | T                                                                                 ",
"              Q | | | 6.6.6.6.6.6.6.6.6.| | | | p                                                                               ",
"          p S n | | | 6.6.6.BX|.@X6.6.6.| | | | d $ $ $ $ $ $ $ $ $ $ $ $ $ $ $ $ $ $ $ $ $ $ $ $ $ $ $ $ $ $ $ $ S p           ",
"        = Z | | | | | 6.6.nX#X!.|.6.6.6.| | | | | | | | | | | | | | | | | | | | | | | | | | | | | | | | | | | | | | Z =         ",
"        = | | | | | | 6.6.6.OX!.|.6.6.6.| | | | | | | | | | | | | | | | | | | | | | | | | | | | | | | | | | | | | | | =         ",
"    A m M B =.=.=.=.=.].gX}.jXhX}.].fX].=.=.=.=.=.=.=.=.=.=.=.=.=.=.=.=.=.=.=.=.=.=.=.=.=.=.=.=.=.=.=.=.=.=.=.=.=.=.B M m A =   ",
"  ^ @.@.@.@.@.@.@.@.@.@.@.@.@.@.@.@.@.@.@.@.@.@.@.@.@.@.@.@.@.@.@.@.@.@.@.@.@.@.@.@.@.@.@.@.@.@.@.@.@.@.@.@.@.@.@.@.@.@.@.@.(   ",
"  ) +.+.+.+.+.+.+.+.+.+.+.+.+.+.+.+.+.+.+.+.+.+.+.+.+.+.+.+.+.+.+.+.+.+.+.+.+.+.+.+.+.+.+.+.+.+.+.+.+.+.+.+.+.+.+.+.+.+.+.+.`   ",
"  _ o.o.o.o.o.o.o.o.o.o.o.o.o.o.o.o.o.o.o.o.o.o.o.o.o.o.o.o.o.o.o.o.o.o.o.o.o.o.o.o.o.o.o.o.o.o.o.o.o.o.o.o.o.o.o.o.o.o.o.o.[   ",
"  J O.O.O.O.O.O.O.O.O.O.O.O.O.O.O.O.O.O.O.O.O.O.O.O.O.O.O.O.O.O.O.O.O.O.O.O.O.O.O.O.O.O.O.O.O.O.O.O.O.O.O.O.O.O.O.O.O.O.O.O.'   ",
"  J #.#.#.#.#.#.#.#.#.#.#.#.#.#.#.#.#.#.#.#.#.#.#.#.#.#.#.#.#.#.#.#.#.#.#.#.#.#.#.#.#.#.#.#.#.#.#.#.#.#.#.#.#.#.#.#.#.#.#.#.]   ",
"  H $.$.$.$.$.$.$.$.$.$.$.$.$.$.$.$.$.$.$.$.$.$.$.$.$.$.$.$.$.$.$.$.$.$.$.$.$.$.$.$.$.$.$.$.$.$.$.$.$.$.$.$.$.$.$.$.$.$.$.$.L   ",
"  H 7.7.7.7.7.7.7.7.7.7.7.7.:.:.:.:.:.:.:.:.:.:.:.:.:.:.:.:.:.:.:.:.:.:.:.:.:.:.:.:.:.:.:.:.:.:.:.:.7.7.7.7.7.7.7.7.7.7.7.NXL   ",
"  / {.{.[.y.y.y.y.y.y.y.y.[.i.<.<.<.<.<.<.<.<.<.<.<.<.<.<.<.<.<.<.<.<.<.<.<.<.<.<.<.<.<.<.<.<.<.<.G.y.y.y.y.y.y.y.y.[.{.m.r.{   ",
"  y 2.2.2.2.2.m.m.g.g.g.g.g.S.j.^.^.ZX8XDXJX>XM.M.N.X.(.M.M.pXf.H.i.M.M.M.p.X.X.X.5XC.+Xl.*XX.X.X.s.g.g.g.m.m.m.2.2.2.2.2.2.s   ",
"  F 8.8.8.8.8.8.8.8.8.8.8.e.S.a.;.wXAXrX&XrX}.IX;.f.X.i.;.i.,X+XyX`.H.;.;.p.X.J.h.R.Y.vXcXzX=XX.X.s.8.8.8.8.8.8.8.8.8.8.8.8.a   ",
"  D e.e.e.e.e.e.e.e.e.e.e.e.V.a.;.&X;XHXuXiX;XLX;.f.X.i.^.J.C.;.i.z.X.:X;.p.X.i.4XT.n.xXT.U.$Xz.X.s.e.e.e.e.e.e.e.e.e.e.e.e.y   ",
"  u 1.1.1.1.1.1.1.1.1.1.1.1.V.a.;.CX%XiXuXiXtXaX;.f.X.i.f.X.>X;.;.>XX.a.;.p._.7XT.A.1XU.U.mXbXXXX.s.1.1.1.1.1.1.1.1.1.1.1.1.F   ",
"  z w.w.w.w.w.w.w.w.w.w.w. .V.a.;.&XqX#X!.@X-XaX;.f.X.i.H.X.pX;.;.$XX.5X;.p.(.oX X XA.A.A..XT.2XX.s.w.w.w.w.w.w.w.w.w.w.w.w.D   ",
"  i  . . . . . . . . . . .&.V.a.;.wX;XSX#X!.eXPX;.f.X.i.i.X.j.d.;.b.X.C.;.p.h..XU.E.1X XE.A.E.R.X.s. . . . . . . . . . . . .N   ",
"  C *.*.*.*.*.*.*.*.*.*.*.&.V.a.;.9XqXtX-XOX%XKX;.f.X.i.;.).X.*Xp.X.z.d.;.p.).R..X1Xn.n.3X X7XXXX.s.*.*.*.*.*.*.*.*.*.*.*.*.i   ",
"  7 *.*.*.*.*.*.*.*.*.*.*.&.V.a.;.;.6X@XeX-XFX;.;.f.X.i.;.;.(.l.j.+X$X;.;.p.X.,.MXn.n.n.n.Y.0XX.X.s.*.*.*.*.*.*.*.*.*.*.*.*.C   ",
"    w. . . . . . . . . . .w.S.a.;.;.;.6X%XVX9X;.;.f.X.i.pXh.h.0XH.:XXX(.;.p.X.X.2XoX4XY.oXR.l.X.X.s. . . . . . . . . . . . .7   ",
"    j w.w.w.w.w.w.w.w.w.w.1.S.j.d.d.d.d.8Xd.d.d.d.H.X.:Xi.h.h.:Xh.h.GXh.^.p.X.X.j.a.D.b.a.a.J.X.X.s.w.w.w.w.w.w.w.w.w.w.w.1.    ",
"    h 1.1.1.1.1.1.1.1.1.e.8.>X,.,.,.,.,.,.,.,.,.,.,.,.,.,.,.,.,.,.,.,.,.,.,.,.,.,.,.,.,.,.,.,.,.,.~.e.e.e.1.1.1.1.1.1.1.1.j     ",
"    s 8.8.8.8.8.8.8.8.8.0.} 0.} } } } } } } } } } } } } } } } } } } } } } } } } } } } } } } } } } 4.} } 5.8.8.8.8.8.8.8.8.h     ",
"    y 2.2.2.2.2.2.2.2.2.0.} } } } } } } } } } } } } } } } } } } } } } } } } } } } } } } } } } } } } } } 5.2.2.2.2.2.2.2.2.a     ",
"    u r.r.r.r.r.r.r.r.r.%.%.%.%.%.%.%.%.%.%.%.%.%.%.%.%.%.%.%.%.%.%.%.%.%.%.%.%.%.%.%.%.%.%.%.%.%.%.%.%.%.r.r.r.r.r.r.r.r.g     ",
"    i %.%.%.%.%.%.%.%.%.5.5.kX3.3.3.3.3.3.3.3.3.3.3.3.3.3.3.3.3.3.3.3.3.3.3.3.3.3.3.3.3.3.3.I.3.N.5.5.%.%.%.%.%.%.%.%.%.%.N     ",
"    7 5.5.5.5.5.5.5.5.5.0.} v.Q.X.D.9.9.9.9.9.9.9.9.9.9.9.9.9.9.9.9.9.9.9.9.9.9.9.9.9.9.9.9.~.9.k.} } 5.5.5.5.5.5.5.5.5.5.f     ",
"      w 0.0.0.0.0.0.0.0.} } } F.X.B.v.'.J.<Xz.<.I.X.<X_.`.G.X.X.N.J.N.B.`.u.*XW.9.X.<X_.`.G.u.X.,X} } 0.0.0.0.0.0.0.0.0.0.k     ",
"      l } } } } } } } } } } } F.X.=X=XB.X.P.I.X.kXZ.p.C.X.L.K.X.b.,Xj.).j.} X.b.} Z.p.C.X.L.k.X.W.} } } } } } } } } } } P       ",
"      a } } } } } } } } } } } F.X.u._.B.X.dXN.X.kXZ.l.'.X.L.K.X.P.z.j.'.b.b.X.b.} Z.l.'.X.L.k.X.W.} } } } } } } } } } } I       ",
"    # u 4.4.4.4.4.4.4.4.4.} } F.X.B.} B.X.K.I.B.v.Z.l.w P.w K.X.v.P.v.u.z.} X.b.} Z.l.w P.w k.X.W.} 4.4.4.4.4.4.4.4.4.4.g       ",
"      f q.q.q.q.q.q.q.q.4.} v.Q.X.D.G.Q.X.~.I.X.dXz.sXv.} } ).X./.} } l.z.} X.j.F.z.sXv.} } W.X.C.} 4.q.q.q.q.q.q.q.q.q.z       ",
"      k -.>.>.>.>.>.>.>.q.} kXu.u.u.K.~.D.u.u.N./.u.u.kX} } u.u.Q.} } /.l.u.u.u./.u.u.kX} } N.u.D.} 4.>.>.>.>.>.>.>.>.>.7       ",
"        l -.-.-.-.-.-.-.q.} } } } } } } } } } } } } } } } } } } } } } } } } } } } } } } } } } } } } 4.-.-.-.-.-.-.-.-.Y         ",
"      # y t.t.t.t.t.t.t.>.} } } } } } } } } } } } } } } } } } } } } } } } } } } } } } } } } } } } } 4.t.t.t.t.t.t.t...s         ",
"        R ..............t.t.t.t.t.t.t.t.t.t.t.t.t.t.t.t.t.t.t.t.t.t.t.t.t.t.t.t.t.t.t.t.t.t.t.t.t.t.t.................E         ",
"  # @ o 3 v ........................................................................................................v * o @ #   ",
"# o X 4 > b ! ; ; ; O O O O O O O + + + + + + % % % % % % % % % % % % % % % % % + + + + + + + O O O O O O O ; ; ; W b > 4 3 o # ",
"# o X & > c x 8 8 9 9 0 0 q q e e 5 5 6 6 6 r r 1 1 1 t t , , , , , , t t 1 1 1 r r 6 6 6 5 5 e e q q 0 0 9 9 8 8 x c > 4 X o # ",
"  # @ o 2 2 X X X 3 3 : : : : & & 4 * * * * < < < . . . . . > > > > > > . . . < < < * * * 4 4 & & & : : : 3 3 X X X 2 2 o @ #   ",
"                    # # # # # # # # # # # # # # # # # # @ @ @ @ @ @ @ @ # # # # # # # # # # # # # # # # # # # # # # # #         ",
"                                                                                                                                ",
"                                                                                                                                ",
"                                                                                                                                ",
"                                                                                                                                ",
"                                                                                                                                ",
"                                                                                                                                ",
"                                                                                                                                ",
"                                                                                                                                "
};
