/* XPM */
static char *c3632cd413db4cdfd72e0cc93945c825XFORNZg45LBzo03T[] = {
/* columns rows colors chars-per-pixel */
"32 32 7 1 ",
"  c black",
". c #1A7332",
"X c #1D8F3D",
"o c #6191FE",
"O c #AFE3BD",
"+ c #99D9EA",
"@ c white",
/* pixels */
"oooooooooooooooooooooooooooooooo",
"ooooooo@@@oooooooooooooooooooooo",
"oooooo@+@@@ oooooooooooooooooooo",
"oooo@@@@@@@@ ooooooooo @@@oooooo",
"oo @@@@@@@@@@@oooooooo@+@@@ooooo",
"ooo @@@+@@@@@@ooooo @@@@@@@  ooo",
"oooo @@@+@@@ ooooo@@@@@@@@@@@@oo",
"oooooo o  ooooooooo@@@@@@@@@@ oo",
"oooooooooooooooooooo@@@@+@@  ooo",
"ooooooooooooooooooooo  o  oooooo",
"oooooooooooooooooooooooooooooooo",
"oooooooooooooooooooooooooooooooo",
"oooooooooooooooooooooooooooooooo",
"oooooooooooooooooooooooooooooooo",
"oooooooooooooooooooooooooooooooo",
"oooooooooooooooooooooooooooooooo",
"oooooooooooooooooooooooooooooooo",
"oooooooooooooooooooooooooooooooo",
"oooooooooooooooooooooooooooooooo",
"oooooooooooooooooooooooo      oo",
"ooooooooooooooooooooooo.OOXXX oo",
"ooooooooooooooooooooooo.OOXXX oo",
"oo      oooooooooooooooo.OXX ooo",
"o.OOXXX oooooooooooooooo.OXX ooo",
"o.OOXXX oooooooooooooooo.OXXoooo",
"oo.OXX oooooo      ooooo.OXXoooo",
"oo.OXX ooooo.OOXXX ooooo.OXXoooo",
"oo.OXXoooooo.OOXXX ooooo.OXXoooo",
"oo.OXXooooooo.OXX oooooo.OXXoooo",
"oo.OXXooooooo.OXX oooooo.OXXoooo",
"oo.OXXooooooo.OXXooooooo.OXXoooo",
"oo.OXXooooooo.OXXooooooo.OXXoooo"
};
