/* XPM */
static char *result[] = {
/* columns rows colors chars-per-pixel */
"21 21 5 1 ",
"  c black",
". c #281D13",
"X c #A34814",
"o c #ED691C",
"O c #E6E1E6",
/* pixels */
"XXXXXXXXXXXXXXXXXXXXX",
"XoooooooooooooooooooX",
"XoooooooooooooooooooX",
"XoooooooooooooooooooX",
"XoooooooooooooooooooX",
"Xooooo    o    oooooX",
"Xooooo OO o OO oooooX",
"Xooo   OO o OO   oooX",
"Xooo OO   o   OO oooX",
"Xo   OO ooooo OO   oX",
"Xo OO  ooooooo  OO oX",
"Xo OO  ooooooo  OO oX",
"Xo   OO.ooooo OO   oX",
"Xooo OO.  o   OO oooX",
"Xooo   OO o OO  ooooX",
"Xooooo OO o OO oooooX",
"Xooooo    o    oooooX",
"XoooooooooooooooooooX",
"XoooooooooooooooooooX",
"XoooooooooooooooooooX",
"XXXXXXXXXXXXXXXXXXXXX"
};
