/* XPM */
static char *ad7e427e01454f2bb6fb70a3a1dfb839SVnH7fV8cxNG0XS8[] = {
/* columns rows colors chars-per-pixel */
"128 128 8 1 ",
"  c black",
". c #115223",
"X c #1A7332",
"o c #1D8F3D",
"O c #6191FE",
"+ c #AFE3BD",
"@ c #99D9EA",
"# c white",
/* pixels */
"OOOOOOOOOOOOOOOOOOOOOOOOOOOOOOOOOOOOOOOOOOOOOOOOOOOOOOOOOOOOOOOOOOOOOOOOOOOOOOOOOOOOOOOOOOOOOOOOOOOOOOOOOOOOOOOOOOOOOOOOOOOOOOOO",
"OOOOOOOOOOOOOOOOOOOOOOOOOOOOOOOOOOOOOOOOOOOOOOOOOOOOOOOOOOOOOOOOOOOOOOOOOOOOOOOOOOOOOOOOOOOOOOOOOOOOOOOOOOOOOOOOOOOOOOOOOOOOOOOO",
"OOOOOOOOOOOOOOOOOOOOOOOOOOOOOOOOOOOOOOOOOOOOOOOOOOOOOOOOOOOOOOOOOOOOOOOOOOOOOOOOOOOOOOOOOOOOOOOOOOOOOOOOOOOOOOOOOOOOOOOOOOOOOOOO",
"OOOOOOOOOOOOOOOOOOOOOOOOOOOOOOOOOOOOOOOOOOOOOOOOOOOOOOOOOOOOOOOOOOOOOOOOOOOOOOOOOOOOOOOOOOOOOOOOOOOOOOOOOOOOOOOOOOOOOOOOOOOOOOOO",
"OOOOOOOOOOOOOOOOOOOOOOOOOOOOOOOOOO      OOOOOOOOOOOOOOOOOOOOOOOOOOOOOOOOOOOOOOOOOOOOOOOOOOOOOOOOOOOOOOOOOOOOOOOOOOOOOOOOOOOOOOOO",
"OOOOOOOOOOOOOOOOOOOOOOOOOOOOOOOO   ####  OOOOOOOOOOOOOOOOOOOOOOOOOOOOOOOOOOOOOOOOOOOOOOOOOOOOOOOOOOOOOOOOOOOOOOOOOOOOOOOOOOOOOOO",
"OOOOOOOOOOOOOOOOOOOOOOOOOOOO     #######  OOOOOOOOOOOOOOOOOOOOOOOOOOOOOOOOOOOOOOOOOOOOOOOOOOOOOOOOOOOOOOOOOOOOOOOOOOOOOOOOOOOOOO",
"OOOOOOOOOOOOOOOOOOOOOOOOOOOO ############ OOOOOOOOOOOOOOOOOOOOOOOOOOOOOOOOOOOOOOOOOOOOOOOOOOOOOOOOOOOOOOOOOOOOOOOOOOOOOOOOOOOOOO",
"OOOOOOOOOOOOOOOOOOOOOOOOOOO  ########@@## OOOOOOOOOOOOOOOOOOOOOOOOOOOOOOOOOOOOOOOOOOOOOOOOOOOOOOOOOOOOOOOOOOOOOOOOOOOOOOOOOOOOOO",
"OOOOOOOOOOOOOOOOOOOOOOOOOOO #####@####@##     OOOOOOOOOOOOOOOOOOOOOOOOOOOOOOOOOOOOOOOOOOOOOOOOOOOOOOOOOOOOOOOOOOOOOOOOOOOOOOOOOO",
"OOOOOOOOOOOOOOOOOOOOOOOOO    ###@@#########    OOOOOOOOOOOOOOOOOOOOOOOOOOOOOOOOOOOOOOOOOOOOOOOOOOOOOOOOOOOOOOOOOOOOOOOOOOOOOOOOO",
"OOOOOOOOOOOOOOOOOOOOOOOOO #####@@#############  OOOOOOOOOOOOOOOOOOOOOOOOOOOOOOOOOOOOOOOOOOOOOOOOOOOOOOOOOOOOOOOOOOOOOOOOOOOOOOOO",
"OOOOOOOOOOOOOOOOOOOO      #####################  OOOOOOOOOOOOOOOOOOOOOOOOOOOOOOOOOOOOOOOOOOOOOOOO      OOOOOOOOOOOOOOOOOOOOOOOOO",
"OOOOOOOOOOOOOOOOOO   ########################### OOOOOOOOOOOOOOOOOOOOOOOOOOOOOOOOOOOOOOOOOOOOOO   ####  OOOOOOOOOOOOOOOOOOOOOOOO",
"OOOOOOOOOOOOOOOO   #############################  OO  OOOOOOOOOOOOOOOOOOOOOOOOOOOOOOOOOOOOO     #######  OOOOOOOOOOOOOOOOOOOOOOO",
"OOOOOOOOOOOOOOOO ###############################  O   OOOOOOOOOOOOOOOOOOOOOOOOOOOOOOOOOOOOO ############ OOOOOOOOOOOOOOOOOOOOOOO",
"OOOOOOOOOOOOOOOO ################################   # OOOOOOOOOOOOOOOOOOOOOOOOOOOOOOOOOOOO  ########@@## OOOOOOOOOOOOOOOOOOOOOOO",
"OOOOOOOOOOO      ################################# ##    OOOOOOOOOOOOOOOOOOOOOOOOOOOOOOOOO #####@####@##     OOOOOOOOOOOOOOOOOOO",
"OOOOOOOOOOO ##########################################    OOOOOOOOOOOOOOOOOOOOOOOOOOOOOO    ###@@#########    OOOOOOOOOOOOOOOOOO",
"OOOOOOOOOOO ########################################## ## OOOOOOOOOOOOOOOOOOOOOOOOOOOOOO #####@@#############  OOOOOOOOOOOOOOOOO",
"OOOOOOOOOOO  ############################################ OOOOOOOOOOOOOOOOOOOOOOOOO      #####################  OOOOOOOOOOOOOOOO",
"OOOOOOOOOOOO  ########################################### OOOOOOOOOOOOOOOOOOOOOOO   ########################### OOOOOOOOOOOOOOOO",
"OOOOOOOOOOOOO   ######################################### OOOOOOOOOOOOOOOOOOOOO   #############################  OO  OOOOOOOOOOO",
"OOOOOOOOOOOOOO  #############@@@########################  OOOOOOOOOOOOOOOOOOOOO ###############################  O   OOOOOOOOOOO",
"OOOOOOOOOOOOOOO  ###@@@#####@##@@#######################  OOOOOOOOOOOOOOOOOOOOO ################################   # OOOOOOOOOOO",
"OOOOOOOOOOOOOOOO  ####@@@#@@@###@@@##@@###############    OOOOOOOOOOOOOOOO      ################################# ##    OOOOOOOO",
"OOOOOOOOOOOOOOOOO #####@@@@@#####@@@@@############### OOOOOOOOOOOOOOOOOOOO ##########################################    OOOOOOO",
"OOOOOOOOOOOOOOOOOO  #####@########@@@###########      OOOOOOOOOOOOOOOOOOOO ########################################## ## OOOOOOO",
"OOOOOOOOOOOOOOOOOOO    #######  ############      OOOOOOOOOOOOOOOOOOOOOOOO  ############################################ OOOOOOO",
"OOOOOOOOOOOOOOOOOOOOOO   ####    #####  #       OOOOOOOOOOOOOOOOOOOOOOOOOOO  ########################################### OOOOOOO",
"OOOOOOOOOOOOOOOOOOOOOOO  ###  OO  ##       OOOOOOOOOOOOOOOOOOOOOOOOOOOOOOOOO   ######################################### OOOOOOO",
"OOOOOOOOOOOOOOOOOOOOOOOO     OOOO         OOOOOOOOOOOOOOOOOOOOOOOOOOOOOOOOOOO  #############@@@########################  OOOOOOO",
"OOOOOOOOOOOOOOOOOOOOOOOOOOOOOOOOOOOOOOOOOOOOOOOOOOOOOOOOOOOOOOOOOOOOOOOOOOOOOO  ###@@@#####@##@@#######################  OOOOOOO",
"OOOOOOOOOOOOOOOOOOOOOOOOOOOOOOOOOOOOOOOOOOOOOOOOOOOOOOOOOOOOOOOOOOOOOOOOOOOOOOO  ####@@@#@@@###@@@##@@###############    OOOOOOO",
"OOOOOOOOOOOOOOOOOOOOOOOOOOOOOOOOOOOOOOOOOOOOOOOOOOOOOOOOOOOOOOOOOOOOOOOOOOOOOOOO #####@@@@@#####@@@@@############### OOOOOOOOOOO",
"OOOOOOOOOOOOOOOOOOOOOOOOOOOOOOOOOOOOOOOOOOOOOOOOOOOOOOOOOOOOOOOOOOOOOOOOOOOOOOOOO  #####@########@@@###########      OOOOOOOOOOO",
"OOOOOOOOOOOOOOOOOOOOOOOOOOOOOOOOOOOOOOOOOOOOOOOOOOOOOOOOOOOOOOOOOOOOOOOOOOOOOOOOOO    #######  ############      OOOOOOOOOOOOOOO",
"OOOOOOOOOOOOOOOOOOOOOOOOOOOOOOOOOOOOOOOOOOOOOOOOOOOOOOOOOOOOOOOOOOOOOOOOOOOOOOOOOOOOO   ####    #####  #       OOOOOOOOOOOOOOOOO",
"OOOOOOOOOOOOOOOOOOOOOOOOOOOOOOOOOOOOOOOOOOOOOOOOOOOOOOOOOOOOOOOOOOOOOOOOOOOOOOOOOOOOOO  ###  OO  ##       OOOOOOOOOOOOOOOOOOOOOO",
"OOOOOOOOOOOOOOOOOOOOOOOOOOOOOOOOOOOOOOOOOOOOOOOOOOOOOOOOOOOOOOOOOOOOOOOOOOOOOOOOOOOOOOO     OOOO         OOOOOOOOOOOOOOOOOOOOOOO",
"OOOOOOOOOOOOOOOOOOOOOOOOOOOOOOOOOOOOOOOOOOOOOOOOOOOOOOOOOOOOOOOOOOOOOOOOOOOOOOOOOOOOOOOOOOOOOOOOOOOOOOOOOOOOOOOOOOOOOOOOOOOOOOOO",
"OOOOOOOOOOOOOOOOOOOOOOOOOOOOOOOOOOOOOOOOOOOOOOOOOOOOOOOOOOOOOOOOOOOOOOOOOOOOOOOOOOOOOOOOOOOOOOOOOOOOOOOOOOOOOOOOOOOOOOOOOOOOOOOO",
"OOOOOOOOOOOOOOOOOOOOOOOOOOOOOOOOOOOOOOOOOOOOOOOOOOOOOOOOOOOOOOOOOOOOOOOOOOOOOOOOOOOOOOOOOOOOOOOOOOOOOOOOOOOOOOOOOOOOOOOOOOOOOOOO",
"OOOOOOOOOOOOOOOOOOOOOOOOOOOOOOOOOOOOOOOOOOOOOOOOOOOOOOOOOOOOOOOOOOOOOOOOOOOOOOOOOOOOOOOOOOOOOOOOOOOOOOOOOOOOOOOOOOOOOOOOOOOOOOOO",
"OOOOOOOOOOOOOOOOOOOOOOOOOOOOOOOOOOOOOOOOOOOOOOOOOOOOOOOOOOOOOOOOOOOOOOOOOOOOOOOOOOOOOOOOOOOOOOOOOOOOOOOOOOOOOOOOOOOOOOOOOOOOOOOO",
"OOOOOOOOOOOOOOOOOOOOOOOOOOOOOOOOOOOOOOOOOOOOOOOOOOOOOOOOOOOOOOOOOOOOOOOOOOOOOOOOOOOOOOOOOOOOOOOOOOOOOOOOOOOOOOOOOOOOOOOOOOOOOOOO",
"OOOOOOOOOOOOOOOOOOOOOOOOOOOOOOOOOOOOOOOOOOOOOOOOOOOOOOOOOOOOOOOOOOOOOOOOOOOOOOOOOOOOOOOOOOOOOOOOOOOOOOOOOOOOOOOOOOOOOOOOOOOOOOOO",
"OOOOOOOOOOOOOOOOOOOOOOOOOOOOOOOOOOOOOOOOOOOOOOOOOOOOOOOOOOOOOOOOOOOOOOOOOOOOOOOOOOOOOOOOOOOOOOOOOOOOOOOOOOOOOOOOOOOOOOOOOOOOOOOO",
"OOOOOOOOOOOOOOOOOOOOOOOOOOOOOOOOOOOOOOOOOOOOOOOOOOOOOOOOOOOOOOOOOOOOOOOOOOOOOOOOOOOOOOOOOOOOOOOOOOOOOOOOOOOOOOOOOOOOOOOOOOOOOOOO",
"OOOOOOOOOOOOOOOOOOOOOOOOOOOOOOOOOOOOOOOOOOOOOOOOOOOOOOOOOOOOOOOOOOOOOOOOOOOOOOOOOOOOOOOOOOOOOOOOOOOOOOOOOOOOOOOOOOOOOOOOOOOOOOOO",
"OOOOOOOOOOOOOOOOOOOOOOOOOOOOOOOOOOOOOOOOOOOOOOOOOOOOOOOOOOOOOOOOOOOOOOOOOOOOOOOOOOOOOOOOOOOOOOOOOOOOOOOOOOOOOOOOOOOOOOOOOOOOOOOO",
"OOOOOOOOOOOOOOOOOOOOOOOOOOOOOOOOOOOOOOOOOOOOOOOOOOOOOOOOOOOOOOOOOOOOOOOOOOOOOOOOOOOOOOOOOOOOOOOOOOOOOOOOOOOOOOOOOOOOOOOOOOOOOOOO",
"OOOOOOOOOOOOOOOOOOOOOOOOOOOOOOOOOOOOOOOOOOOOOOOOOOOOOOOOOOOOOOOOOOOOOOOOOOOOOOOOOOOOOOOOOOOOOOOOOOOOOOOOOOOOOOOOOOOOOOOOOOOOOOOO",
"OOOOOOOOOOOOOOOOOOOOOOOOOOOOOOOOOOOOOOOOOOOOOOOOOOOOOOOOOOOOOOOOOOOOOOOOOOOOOOOOOOOOOOOOOOOOOOOOOOOOOOOOOOOOOOOOOOOOOOOOOOOOOOOO",
"OOOOOOOOOOOOOOOOOOOOOOOOOOOOOOOOOOOOOOOOOOOOOOOOOOOOOOOOOOOOOOOOOOOOOOOOOOOOOOOOOOOOOOOOOOOOOOOOOOOOOOOOOOOOOOOOOOOOOOOOOOOOOOOO",
"OOOOOOOOOOOOOOOOOOOOOOOOOOOOOOOOOOOOOOOOOOOOOOOOOOOOOOOOOOOOOOOOOOOOOOOOOOOOOOOOOOOOOOOOOOOOOOOOOOOOOOOOOOOOOOOOOOOOOOOOOOOOOOOO",
"OOOOOOOOOOOOOOOOOOOOOOOOOOOOOOOOOOOOOOOOOOOOOOOOOOOOOOOOOOOOOOOOOOOOOOOOOOOOOOOOOOOOOOOOOOOOOOOOOOOOOOOOOOOOOOOOOOOOOOOOOOOOOOOO",
"OOOOOOOOOOOOOOOOOOOOOOOOOOOOOOOOOOOOOOOOOOOOOOOOOOOOOOOOOOOOOOOOOOOOOOOOOOOOOOOOOOOOOOOOOOOOOOOOOOOOOOOOOOOOOOOOOOOOOOOOOOOOOOOO",
"OOOOOOOOOOOOOOOOOOOOOOOOOOOOOOOOOOOOOOOOOOOOOOOOOOOOOOOOOOOOOOOOOOOOOOOOOOOOOOOOOOOOOOOOOOOOOOOOOOOOOOOOOOOOOOOOOOOOOOOOOOOOOOOO",
"OOOOOOOOOOOOOOOOOOOOOOOOOOOOOOOOOOOOOOOOOOOOOOOOOOOOOOOOOOOOOOOOOOOOOOOOOOOOOOOOOOOOOOOOOOOOOOOOOOOOOOOOOOOOOOOOOOOOOOOOOOOOOOOO",
"OOOOOOOOOOOOOOOOOOOOOOOOOOOOOOOOOOOOOOOOOOOOOOOOOOOOOOOOOOOOOOOOOOOOOOOOOOOOOOOOOOOOOOOOOOOOOOOOOOOOOOOOOOOOOOOOOOOOOOOOOOOOOOOO",
"OOOOOOOOOOOOOOOOOOOOOOOOOOOOOOOOOOOOOOOOOOOOOOOOOOOOOOOOOOOOOOOOOOOOOOOOOOOOOOOOOOOOOOOOOOOOOOOOOOOOOOOOOOOOOOOOOOOOOOOOOOOOOOOO",
"OOOOOOOOOOOOOOOOOOOOOOOOOOOOOOOOOOOOOOOOOOOOOOOOOOOOOOOOOOOOOOOOOOOOOOOOOOOOOOOOOOOOOOOOOOOOOOOOOOOOOOOOOOOOOOOOOOOOOOOOOOOOOOOO",
"OOOOOOOOOOOOOOOOOOOOOOOOOOOOOOOOOOOOOOOOOOOOOOOOOOOOOOOOOOOOOOOOOOOOOOOOOOOO                  OOOOOOOOOOOOOOOOOOOOOOOOOOOOOOOOOO",
"OOOOOOOOOOOOOOOOOOOOOOOOOOOOOOOOOOOOOOOOOOOOOOOOOOOOOOOOOOOOOOOOOOOOOOOOOOOO ooo+++oooooooooo OOOOOOOOOOOOOOOOOOOOOOOOOOOOOOOOOO",
"OOOOOOOOOOOOOOOOOOOOOOOOOOOOOOOOOOOOOOOOOOOOOOOOOOOOOOOOOOOOOOOOOOOOOOOOOOOO ooo+++oooooooo.o OOOOOOOOOOOOOOOOOOOOOOOOOOOOOOOOOO",
"OOOOOOOOOOOOOOOOOOOOOOOOOOOOOOOOOOOOOOOOOOOOOOOOOOOOOOOOOOOOOOOOOOOOOOOOOOOO ooo+++oooooooo.o OOOOOOOOOOOOOOOOOOOOOOOOOOOOOOOOOO",
"OOOOOOOOOOOOOOOOOOOOOOOOOOOOOOOOOOOOOOOOOOOOOOOOOOOOOOOOOOOOOOOOOOOOOOOOOOOO ooo+++oooooooo.o OOOOOOOOOOOOOOOOOOOOOOOOOOOOOOOOOO",
"OOOOOOOOOOOOOOOOOOOOOOOOOOOOOOOOOOOOOOOOOOOOOOOOOOOOOOOOOOOOOOOOOOOOOOOOOOOO ooo+++ooooooo..o OOOOOOOOOOOOOOOOOOOOOOOOOOOOOOOOOO",
"OOOOOOOOOOOOOOOOOOOOOOOOOOOOOOOOOOOOOOOOOOOOOOOOOOOOOOOOOOOOOOOOOOOOOOOOOOOO ooo+++oooooo..oo OOOOOOOOOOOOOOOOOOOOOOOOOOOOOOOOOO",
"OOOOOOOOOOOOOOOOOOOOOOOOOOOOOOOOOOOOOOOOOOOOOOOOOOOOOOOOOOOOOOOOOOOOOOOOOOOO  oo+++oooooo.oo  OOOOOOOOOOOOOOOOOOOOOOOOOOOOOOOOOO",
"OOOOOOOOOOOOOOOOOOOOOOOOOOOOOOOOOOOOOOOOOOOOOOOOOOOOOOOOOOOOOOOOOOOOOOOOOOOOO  XXX++ooooooo  OOOOOOOOOOOOOOOOOOOOOOOOOOOOOOOOOOO",
"OOOOOOOOOOOOOOOOOOOOOOOOOOOOOOOOOOOOOOOOOOOOOOOOOOOOOOOOOOOOOOOOOOOOOOOOOOOOOO   X++ooooo   OOOOOOOOOOOOOOOOOOOOOOOOOOOOOOOOOOOO",
"OOOOOOOOOOOOOOOOOOOOOOOOOOOOOOOOOOOOOOOOOOOOOOOOOOOOOOOOOOOOOOOOOOOOOOOOOOOOOOOO X++ooooo OOOOOOOOOOOOOOOOOOOOOOOOOOOOOOOOOOOOOO",
"OOOOOOOOOOOOOOOOOOOOOOOOOOOOOOOOOOOOOOOOOOOOOOOOOOOOOOOOOOOOOOOOOOOOOOOOOOOOOOOO X++ooooo OOOOOOOOOOOOOOOOOOOOOOOOOOOOOOOOOOOOOO",
"OOOOOOOOOOOOOOOOOOOOOOOOOOOOOOOOOOOOOOOOOOOOOOOOOOOOOOOOOOOOOOOOOOOOOOOOOOOOOOOO X++ooooo OOOOOOOOOOOOOOOOOOOOOOOOOOOOOOOOOOOOOO",
"OOOOOOOOOOOOOOOOOOOOOOOOOOOOOOOOOOOOOOOOOOOOOOOOOOOOOOOOOOOOOOOOOOOOOOOOOOOOOOOO X++ooooo OOOOOOOOOOOOOOOOOOOOOOOOOOOOOOOOOOOOOO",
"OOOOOOOOOOOOOOOOOOOOOOOOOOOOOOOOOOOOOOOOOOOOOOOOOOOOOOOOOOOOOOOOOOOOOOOOOOOOOOOO X++ooooo OOOOOOOOOOOOOOOOOOOOOOOOOOOOOOOOOOOOOO",
"OOOOOOOOOOOOOOOOOOOOOOOOOOOOOOOOOOOOOOOOOOOOOOOOOOOOOOOOOOOOOOOOOOOOOOOOOOOOOOOO X++ooooo OOOOOOOOOOOOOOOOOOOOOOOOOOOOOOOOOOOOOO",
"OOOOOOOOOOOOOOOOOOOOOOOOOOOOOOOOOOOOOOOOOOOOOOOOOOOOOOOOOOOOOOOOOOOOOOOOOOOOOOOO X++ooooo OOOOOOOOOOOOOOOOOOOOOOOOOOOOOOOOOOOOOO",
"OOOOOOOOOOOOOOOOOOOOOOOOOOOOOOOOOOOOOOOOOOOOOOOOOOOOOOOOOOOOOOOOOOOOOOOOOOOOOOOO X++ooooo OOOOOOOOOOOOOOOOOOOOOOOOOOOOOOOOOOOOOO",
"OOOOOOOOOOOOOOOOOOOOOOOOOOOOOOOOOOOOOOOOOOOOOOOOOOOOOOOOOOOOOOOOOOOOOOOOOOOOOOOO X++ooooo OOOOOOOOOOOOOOOOOOOOOOOOOOOOOOOOOOOOOO",
"OOOOOOOOOOOOOOOOOOOOOOOOOOOOOOOOOOOOOOOOOOOOOOOOOOOOOOOOOOOOOOOOOOOOOOOOOOOOOOOO X++ooooo OOOOOOOOOOOOOOOOOOOOOOOOOOOOOOOOOOOOOO",
"OOOOOOOOOOOOOOOOOOOOOOOOOOOOOOOOOOOOOOOOOOOOOOOOOOOOOOOOOOOOOOOOOOOOOOOOOOOOOOOO X++ooooo OOOOOOOOOOOOOOOOOOOOOOOOOOOOOOOOOOOOOO",
"OOOOOOOOOOOOOOOOOOOOOOOOOOOOOOOOOOOOOOOOOOOOOOOOOOOOOOOOOOOOOOOOOOOOOOOOOOOOOOOO X++ooooo OOOOOOOOOOOOOOOOOOOOOOOOOOOOOOOOOOOOOO",
"OOOOOOOOOOOOOOOOOOOOOOOOOOOOOOOOOOOOOOOOOOOOOOOOOOOOOOOOOOOOOOOOOOOOOOOOOOOOOOOO X++ooooo OOOOOOOOOOOOOOOOOOOOOOOOOOOOOOOOOOOOOO",
"OOOOOOOOOOOOOOOOOOOOOOOOOOOOOOOOOOOOOOOOOOOOOOOOOOOOOOOOOOOOOOOOOOOOOOOOOOOOOOOO X++ooooo OOOOOOOOOOOOOOOOOOOOOOOOOOOOOOOOOOOOOO",
"OOOOOOOOOOOOOOOOOOOOOOOOOOOOOOOOOOOOOOOOOOOOOOOOOOOOOOOOOOOOOOOOOOOOOOOOOOOOOOOO X++ooooo OOOOOOOOOOOOOOOOOOOOOOOOOOOOOOOOOOOOOO",
"OOOOOOOOOOOOOOOOOOOOOOOOOOOOOOOOOOOOOOOOOOOOOOOOOOOOOOOOOOOOOOOOOOOOOOOOOOOOOOOO X++ooooo OOOOOOOOOOOOOOOOOOOOOOOOOOOOOOOOOOOOOO",
"OOOOOOOOOOOOOOOOOOOOOOOOOOOOOOOOOOOOOOOOOOOOOOOOOOOOOOOOOOOOOOOOOOOOOOOOOOOOOOOO X++ooooo OOOOOOOOOOOOOOOOOOOOOOOOOOOOOOOOOOOOOO",
"OOOOOOOOOOOOOOOOOOOOOOOOOOOOOOOOOOOOOOOOOOOOOOOOOOOOOOOOOOOOOOOOOOOOOOOOOOOOOOOO X++ooooo OOOOOOOOOOOOOOOOOOOOOOOOOOOOOOOOOOOOOO",
"OOOOOOOOOOOOOOOOOOOOOOOOOOOOOOOOOOOOOOOOOOOOOO                  OOOOOOOOOOOOOOOO X++ooooo OOOOOOOOOOOOOOOOOOOOOOOOOOOOOOOOOOOOOO",
"OOOOOOOOOOOOOOOOOOOOOOOOOOOOOOOOOOOOOOOOOOOOOO ooo+++oooooooooo OOOOOOOOOOOOOOOO X++ooooo OOOOOOOOOOOOOOOOOOOOOOOOOOOOOOOOOOOOOO",
"OOOOOOOOOOOOOOOOOOOOOOOOOOOOOOOOOOOOOOOOOOOOOO ooo+++oooooooo.o OOOOOOOOOOOOOOOO X++ooooo OOOOOOOOOOOOOOOOOOOOOOOOOOOOOOOOOOOOOO",
"OOOOOOOOOOO                  OOOOOOOOOOOOOOOOO ooo+++oooooooo.o OOOOOOOOOOOOOOOO X++ooooo OOOOOOOOOOOOOOOOOOOOOOOOOOOOOOOOOOOOOO",
"OOOOOOOOOOO ooo+++oooooooooo OOOOOOOOOOOOOOOOO ooo+++oooooooo.o OOOOOOOOOOOOOOOO X++ooooo OOOOOOOOOOOOOOOOOOOOOOOOOOOOOOOOOOOOOO",
"OOOOOOOOOOO ooo+++oooooooo.o OOOOOOOOOOOOOOOOO ooo+++ooooooo..o OOOOOOOOOOOOOOOO X++ooooo OOOOOOOOOOOOOOOOOOOOOOOOOOOOOOOOOOOOOO",
"OOOOOOOOOOO ooo+++oooooooo.o OOOOOOOOOOOOOOOOO ooo+++oooooo..oo OOOOOOOOOOOOOOOO X++ooooo OOOOOOOOOOOOOOOOOOOOOOOOOOOOOOOOOOOOOO",
"OOOOOOOOOOO ooo+++oooooooo.o OOOOOOOOOOOOOOOOO  oo+++oooooo.oo  OOOOOOOOOOOOOOOO X++ooooo OOOOOOOOOOOOOOOOOOOOOOOOOOOOOOOOOOOOOO",
"OOOOOOOOOOO ooo+++ooooooo..o OOOOOOOOOOOOOOOOOO  XXX++ooooooo  OOOOOOOOOOOOOOOOO X++ooooo OOOOOOOOOOOOOOOOOOOOOOOOOOOOOOOOOOOOOO",
"OOOOOOOOOOO ooo+++oooooo..oo OOOOOOOOOOOOOOOOOOO   X++ooooo   OOOOOOOOOOOOOOOOOO X++ooooo OOOOOOOOOOOOOOOOOOOOOOOOOOOOOOOOOOOOOO",
"OOOOOOOOOOO  oo+++oooooo.oo  OOOOOOOOOOOOOOOOOOOOO X++ooooo OOOOOOOOOOOOOOOOOOOO X++ooooo OOOOOOOOOOOOOOOOOOOOOOOOOOOOOOOOOOOOOO",
"OOOOOOOOOOOO  XXX++ooooooo  OOOOOOOOOOOOOOOOOOOOOO X++ooooo OOOOOOOOOOOOOOOOOOOO X++ooooo OOOOOOOOOOOOOOOOOOOOOOOOOOOOOOOOOOOOOO",
"OOOOOOOOOOOOO   X++ooooo   OOOOOOOOOOOOOOOOOOOOOOO X++ooooo OOOOOOOOOOOOOOOOOOOO X++ooooo OOOOOOOOOOOOOOOOOOOOOOOOOOOOOOOOOOOOOO",
"OOOOOOOOOOOOOOO X++ooooo OOOOOOOOOOOOOOOOOOOOOOOOO X++ooooo OOOOOOOOOOOOOOOOOOOO X++ooooo OOOOOOOOOOOOOOOOOOOOOOOOOOOOOOOOOOOOOO",
"OOOOOOOOOOOOOOO X++ooooo OOOOOOOOOOOO                  oooo OOOOOOOOOOOOOOOOOOOO X++ooooo OOOOOOOOOOOOOOOOOOOOOOOOOOOOOOOOOOOOOO",
"OOOOOOOOOOOOOOO X++ooooo OOOOOOOOOOOO ooo+++oooooooooo oooo OOOOOOOOOOOOOOOOOOOO X++ooooo OOOOOOOOOOOOOOOOOOOOOOOOOOOOOOOOOOOOOO",
"OOOOOOOOOOOOOOO X++ooooo OOOOOOOOOOOO ooo+++oooooooo.o oooo OOOOOOOOOOOOOOOOOOOO X++ooooo OOOOOOOOOOOOOOOOOOOOOOOOOOOOOOOOOOOOOO",
"OOOOOOOOOOOOOOO X++ooooo OOOOOOOOOOOO ooo+++oooooooo.o oooo OOOOOOOOOOOOOOOOOOOO X++ooooo OOOOOOOOOOOOOOOOOOOOOOOOOOOOOOOOOOOOOO",
"OOOOOOOOOOOOOOO X++ooooo OOOOOOOOOOOO ooo+++oooooooo.o oooo OOOOOOOOOOOOOOOOOOOO X++ooooo OOOOOOOOOO                  OOOOOOOOOO",
"OOOOOOOOOOOOOOO X++ooooo OOOOOOOOOOOO ooo+++ooooooo..o oooo OOOOOOOOOOOOOOOOOOOO X++ooooo OOOOOOOOOO ooo+++oooooooooo OOOOOOOOOO",
"OOOOOOOOOOOOOOO X++ooooo OOOOOOOOOOOO ooo+++oooooo..oo oooo OOOOOOOOOOOOOOOOOOOO X++ooooo OOOOOOOOOO ooo+++oooooooo.o OOOOOOOOOO",
"OOOOOOOOOOOOOOO X++ooooo OOOOOOOOOOOO  oo+++oooooo.oo  oooo OOOOOOOOOOOOOOOOOOOO X++ooooo OOOOOOOOOO ooo+++oooooooo.o OOOOOOOOOO",
"OOOOOOOOOOOOOOO X++ooooo OOOOOOOOOOOOO  XXX++ooooooo  ooooo OOOOOOOOOOOOOOOOOOOO X++ooooo OOOOOOOOOO ooo+++oooooooo.o OOOOOOOOOO",
"OOOOOOOOOOOOOOO X++ooooo OOOOOOOOOOOOOO   X++ooooo   +ooooo OOOOOOOOOOOOOOOOOOOO X++ooooo OOOOOOOOOO ooo+++ooooooo..o OOOOOOOOOO",
"OOOOOOOOOOOOOOO X++ooooo OOOOOOOOOOOOOOOO X++ooooo X++ooooo OOOOOOOOOOOOOOOOOOOO X++ooooo OOOOOOOOOO ooo+++oooooo..oo OOOOOOOOOO",
"OOOOOOOOOOOOOOO X++ooooo OOOOOOOOOOOOOOOO X++ooooo X++ooooo OOOOOOOOOOOOOOOOOOOO X++ooooo OOOOOOOOOO  oo+++oooooo.oo  OOOOOOOOOO",
"OOOOOOOOOOOOOOO X++ooooo OOOOOOOOOOOOOOOO X++ooooo X++ooooo OOOOOOOOOOOOOOOOOOOO X++ooooo OOOOOOOOOOO  XXX++ooooooo  OOOOOOOOOOO",
"OOOOOOOOOOOOOOO X++ooooo OOOOOOOOOOOOOOOO X++ooooo X++ooooo OOOOOOOOOOOOOOOOOOOO X++ooooo OOOOOOOOOOOO   X++ooooo   OOOOOOOOOOOO",
"OOOOOOOOOOOOOOO X++ooooo OOOOOOOOOOOOOOOO X++ooooo X++ooooo OOOOOOOOOOOOOOOOOOOO X++ooooo OOOOOOOOOOOOOO X++ooooo OOOOOOOOOOOOOO",
"OOOOOOOOOOOOOOO X++ooooo OOOOOOOOOOOOOOOO X++ooooo X++ooooo OOOOOOOOOOOOOOOOOOOO X++ooooo OOOOOOOOOOOOOO X++ooooo OOOOOOOOOOOOOO",
"OOOOOOOOOOOOOOO X++ooooo OOOOOOOOOOOOOOOO X++ooooo X++ooooo OOOOOOOOOOOOOOOOOOOO X++ooooo OOOOOOOOOOOOOO X++ooooo OOOOOOOOOOOOOO",
"OOOOOOOOOOOOOOO X++ooooo OOOOOOOOOOOOOOOO X++ooooo X++ooooo OOOOOOOOOOOOOOOOOOOO X++ooooo OOOOOOOOOOOOOO X++ooooo OOOOOOOOOOOOOO",
"OOOOOOOOOOOOOOO X++ooooo OOOOOOOOOOOOOOOO X++ooooo X++ooooo OOOOOOOOOOOOOOOOOOOO X++ooooo OOOOOOOOOOOOOO X++ooooo OOOOOOOOOOOOOO",
"OOOOOOOOOOOOOOO X++ooooo OOOOOOOOOOOOOOOO X++ooooo X++ooooo OOOOOOOOOOOOOOOOOOOO X++ooooo OOOOOOOOOOOOOO X++ooooo OOOOOOOOOOOOOO",
"OOOOOOOOOOOOOOO X++ooooo OOOOOOOOOOOOOOOO X++ooooo X++ooooo OOOOOOOOOOOOOOOOOOOO X++ooooo OOOOOOOOOOOOOO X++ooooo OOOOOOOOOOOOOO",
"OOOOOOOOOOOOOOO X++ooooo OOOOOOOOOOOOOOOO X++ooooo X++ooooo OOOOOOOOOOOOOOOOOOOO X++ooooo OOOOOOOOOOOOOO X++ooooo OOOOOOOOOOOOOO",
"OOOOOOOOOOOOOOO X++ooooo OOOOOOOOOOOOOOOO X++ooooo X++ooooo OOOOOOOOOOOOOOOOOOOO X++ooooo OOOOOOOOOOOOOO X++ooooo OOOOOOOOOOOOOO"
};
