/* XPM */
static char *_33fbb1b96354196d8ef73db1dfa4002hrQsdZuzFsAIdAOc[] = {
/* columns rows colors chars-per-pixel */
"21 21 2 1 ",
"  c #6F3198",
". c #99D9EA",
/* pixels */
"                     ",
"           ....      ",
"  .......  .  .      ",
"  .  .. .  ....      ",
"  ..... .      ....  ",
"      . ...... .  .  ",
"  ........   . .  .  ",
"  .   .  .   . .  .  ",
"  .   .  .   . ....  ",
"  .   .  .....       ",
"  .........     .... ",
"  .....   . .....  . ",
"  .  ...... .  ..  . ",
"  .  ....   ........ ",
"  ..... .            ",
"   ..........  ..... ",
"   .  . .   .  .   . ",
"   .... .   .  .   . ",
"        .   .  ..... ",
"        .....        ",
"                     "
};
