/* XPM */
static char *_a33af6f019843f9b6872567279f9319DuluwDPcNf3fH0fO[] = {
/* columns rows colors chars-per-pixel */
"128 128 4 1 ",
"  c #B3870E",
". c #FFC20E",
"X c #B4B4B4",
"o c white",
/* pixels */
"        ................................................................................................................        ",
"        ................................................................................................................        ",
"        ................................................................................................................        ",
"        ................................................................................................................        ",
"    ........................................................................................................................    ",
"    ........................................................................................................................    ",
"    ........................................................................................................................    ",
"    ........................................................................................................................    ",
"............    ................................................................................................    ............",
"............    ................................................................................................    ............",
"............    ................................................................................................    ............",
"............    ................................................................................................    ............",
"........            ........................................................................................            ........",
"........            ........................................................................................            ........",
"........            ........................................................................................            ........",
"........            ........................................................................................            ........",
"............    ................................................................................................    ............",
"............    ................................................................................................    ............",
"............    ................................................................................................    ............",
"............    ................................................................................................    ............",
"................................................................................................................................",
"................................................................................................................................",
"................................................................................................................................",
"................................................................................................................................",
"................................................................................................................................",
"................................................................................................................................",
"................................................................................................................................",
"................................................................................................................................",
"................................oooooooooooooooooooooooooooooooooooooooooooooooooooooooooooooooo................................",
"................................oooooooooooooooooooooooooooooooooooooooooooooooooooooooooooooooo................................",
"................................oooooooooooooooooooooooooooooooooooooooooooooooooooooooooooooooo................................",
"................................oooooooooooooooooooooooooooooooooooooooooooooooooooooooooooooooo................................",
"............................oooooooooooooooooooooooooooooooooooooooooooooooooooooooooooooooooooooooo............................",
"............................oooooooooooooooooooooooooooooooooooooooooooooooooooooooooooooooooooooooo............................",
"............................oooooooooooooooooooooooooooooooooooooooooooooooooooooooooooooooooooooooo............................",
"............................oooooooooooooooooooooooooooooooooooooooooooooooooooooooooooooooooooooooo............................",
"........................oooooooooooooooooooooooooooooooooooooooooooooooooooooooooooooooooooooooooooooooo........................",
"........................oooooooooooooooooooooooooooooooooooooooooooooooooooooooooooooooooooooooooooooooo........................",
"........................oooooooooooooooooooooooooooooooooooooooooooooooooooooooooooooooooooooooooooooooo........................",
"........................oooooooooooooooooooooooooooooooooooooooooooooooooooooooooooooooooooooooooooooooo........................",
"........................ooooooooooooooooooooooooooooooooooooooooooooooooooooooooooooooooooooooooooooooooXXXX....................",
"........................ooooooooooooooooooooooooooooooooooooooooooooooooooooooooooooooooooooooooooooooooXXXX....................",
"........................ooooooooooooooooooooooooooooooooooooooooooooooooooooooooooooooooooooooooooooooooXXXX....................",
"........................ooooooooooooooooooooooooooooooooooooooooooooooooooooooooooooooooooooooooooooooooXXXX....................",
"........................ooooooooooooooooooooooooXXXXXXXXXXXXXXXXXXXXXXXXXXXXXXXXooooooooooooooooooooooooXXXX....................",
"........................ooooooooooooooooooooooooXXXXXXXXXXXXXXXXXXXXXXXXXXXXXXXXooooooooooooooooooooooooXXXX....................",
"........................ooooooooooooooooooooooooXXXXXXXXXXXXXXXXXXXXXXXXXXXXXXXXooooooooooooooooooooooooXXXX....................",
"........................ooooooooooooooooooooooooXXXXXXXXXXXXXXXXXXXXXXXXXXXXXXXXooooooooooooooooooooooooXXXX....................",
"........................ooooooooooooooooooooXXXXXXXX............................XXXXooooooooooooooooooooXXXX....................",
"........................ooooooooooooooooooooXXXXXXXX............................XXXXooooooooooooooooooooXXXX....................",
"........................ooooooooooooooooooooXXXXXXXX............................XXXXooooooooooooooooooooXXXX....................",
"........................ooooooooooooooooooooXXXXXXXX............................XXXXooooooooooooooooooooXXXX....................",
"........................ooooooooooooooooooooXXXX....................................ooooooooooooooooooooXXXX....................",
"........................ooooooooooooooooooooXXXX....................................ooooooooooooooooooooXXXX....................",
"........................ooooooooooooooooooooXXXX....................................ooooooooooooooooooooXXXX....................",
"........................ooooooooooooooooooooXXXX....................................ooooooooooooooooooooXXXX....................",
"................................XXXXXXXXXXXXXXXX....................................ooooooooooooooooooooXXXX....................",
"................................XXXXXXXXXXXXXXXX....................................ooooooooooooooooooooXXXX....................",
"................................XXXXXXXXXXXXXXXX....................................ooooooooooooooooooooXXXX....................",
"................................XXXXXXXXXXXXXXXX....................................ooooooooooooooooooooXXXX....................",
"................................................................................ooooooooooooooooooooooooXXXX....................",
"................................................................................ooooooooooooooooooooooooXXXX....................",
"................................................................................ooooooooooooooooooooooooXXXX....................",
"................................................................................ooooooooooooooooooooooooXXXX....................",
"............................................................................ooooooooooooooooooooooooooooXXXX....................",
"............................................................................ooooooooooooooooooooooooooooXXXX....................",
"............................................................................ooooooooooooooooooooooooooooXXXX....................",
"............................................................................ooooooooooooooooooooooooooooXXXX....................",
"............................................................ooooooooooooooooooooooooooooooooooooooooXXXXXXXX....................",
"............................................................ooooooooooooooooooooooooooooooooooooooooXXXXXXXX....................",
"............................................................ooooooooooooooooooooooooooooooooooooooooXXXXXXXX....................",
"............................................................ooooooooooooooooooooooooooooooooooooooooXXXXXXXX....................",
"........................................................ooooooooooooooooooooooooooooooooooooooooXXXXXXXX........................",
"........................................................ooooooooooooooooooooooooooooooooooooooooXXXXXXXX........................",
"........................................................ooooooooooooooooooooooooooooooooooooooooXXXXXXXX........................",
"........................................................ooooooooooooooooooooooooooooooooooooooooXXXXXXXX........................",
"....................................................ooooooooooooooooooooooooooooXXXXXXXXXXXXXXXXXXXX............................",
"....................................................ooooooooooooooooooooooooooooXXXXXXXXXXXXXXXXXXXX............................",
"....................................................ooooooooooooooooooooooooooooXXXXXXXXXXXXXXXXXXXX............................",
"....................................................ooooooooooooooooooooooooooooXXXXXXXXXXXXXXXXXXXX............................",
"....................................................ooooooooooooooooooooooooXXXX................................................",
"....................................................ooooooooooooooooooooooooXXXX................................................",
"....................................................ooooooooooooooooooooooooXXXX................................................",
"....................................................ooooooooooooooooooooooooXXXX................................................",
"....................................................ooooooooooooooooooooooooXXXX................................................",
"....................................................ooooooooooooooooooooooooXXXX................................................",
"....................................................ooooooooooooooooooooooooXXXX................................................",
"....................................................ooooooooooooooooooooooooXXXX................................................",
"................................................................................................................................",
"................................................................................................................................",
"................................................................................................................................",
"................................................................................................................................",
"....................................................ooooooooooooooooooooooooXXXX................................................",
"....................................................ooooooooooooooooooooooooXXXX................................................",
"....................................................ooooooooooooooooooooooooXXXX................................................",
"....................................................ooooooooooooooooooooooooXXXX................................................",
"....................................................ooooooooooooooooooooooooXXXX................................................",
"....................................................ooooooooooooooooooooooooXXXX................................................",
"....................................................ooooooooooooooooooooooooXXXX................................................",
"....................................................ooooooooooooooooooooooooXXXX................................................",
"....................................................ooooooooooooooooooooooooXXXX................................................",
"....................................................ooooooooooooooooooooooooXXXX................................................",
"....................................................ooooooooooooooooooooooooXXXX................................................",
"....................................................ooooooooooooooooooooooooXXXX................................................",
"................................................................XXXXXXXXXXXXXXXX................................................",
"................................................................XXXXXXXXXXXXXXXX................................................",
"................................................................XXXXXXXXXXXXXXXX................................................",
"................................................................XXXXXXXXXXXXXXXX................................................",
"............    ................................................................................................    ............",
"............    ................................................................................................    ............",
"............    ................................................................................................    ............",
"............    ................................................................................................    ............",
"........            ........................................................................................            ........",
"........            ........................................................................................            ........",
"........            ........................................................................................            ........",
"........            ........................................................................................            ........",
"............    ................................................................................................    ............",
"............    ................................................................................................    ............",
"............    ................................................................................................    ............",
"............    ................................................................................................    ............",
"    ........................................................................................................................    ",
"    ........................................................................................................................    ",
"    ........................................................................................................................    ",
"    ........................................................................................................................    ",
"        ................................................................................................................        ",
"        ................................................................................................................        ",
"        ................................................................................................................        ",
"        ................................................................................................................        "
};
